{
   "accessors" : 
   [
      {
         "bufferView" : 0,
         "byteOffset" : 0,
         "componentType" : 5126,
         "count" : 23086,
         "max" : [ 9.1400003433227539, 13.715999603271484, 3.9600000381469727 ],
         "min" : [ 0.0, 0.0, 1.0576560497283936 ],
         "type" : "VEC3"
      },
      {
         "bufferView" : 1,
         "byteOffset" : 0,
         "componentType" : 5126,
         "count" : 23086,
         "normalized" : false,
         "type" : "VEC2"
      },
      {
         "bufferView" : 2,
         "byteOffset" : 0,
         "componentType" : 5125,
         "count" : 133848,
         "type" : "SCALAR"
      },
      {
         "bufferView" : 4,
         "byteOffset" : 0,
         "componentType" : 5126,
         "count" : 2,
         "max" : [ 0.0, 1.0, 0.0 ],
         "min" : [ 0.0, 0.0, 0.0 ],
         "type" : "VEC3"
      },
      {
         "bufferView" : 5,
         "byteOffset" : 0,
         "componentType" : 5126,
         "count" : 2,
         "normalized" : false,
         "type" : "VEC2"
      },
      {
         "bufferView" : 6,
         "byteOffset" : 0,
         "componentType" : 5125,
         "count" : 2,
         "type" : "SCALAR"
      },
      {
         "bufferView" : 7,
         "byteOffset" : 0,
         "componentType" : 5126,
         "count" : 2,
         "max" : [ 0.0, 1.0, 0.0 ],
         "min" : [ 0.0, 0.0, 0.0 ],
         "type" : "VEC3"
      },
      {
         "bufferView" : 8,
         "byteOffset" : 0,
         "componentType" : 5126,
         "count" : 2,
         "normalized" : false,
         "type" : "VEC2"
      },
      {
         "bufferView" : 9,
         "byteOffset" : 0,
         "componentType" : 5125,
         "count" : 2,
         "type" : "SCALAR"
      },
      {
         "bufferView" : 10,
         "byteOffset" : 0,
         "componentType" : 5126,
         "count" : 2,
         "max" : [ 0.0, 1.0, 0.0 ],
         "min" : [ 0.0, 0.0, 0.0 ],
         "type" : "VEC3"
      },
      {
         "bufferView" : 11,
         "byteOffset" : 0,
         "componentType" : 5126,
         "count" : 2,
         "normalized" : false,
         "type" : "VEC2"
      },
      {
         "bufferView" : 12,
         "byteOffset" : 0,
         "componentType" : 5125,
         "count" : 2,
         "type" : "SCALAR"
      },
      {
         "bufferView" : 13,
         "byteOffset" : 0,
         "componentType" : 5126,
         "count" : 17,
         "max" : [ 0.40000000596046448, 0.5, 0.40000000596046448 ],
         "min" : [ -0.40000000596046448, -0.5, -0.40000000596046448 ],
         "type" : "VEC3"
      },
      {
         "bufferView" : 14,
         "byteOffset" : 0,
         "componentType" : 5125,
         "count" : 90,
         "type" : "SCALAR"
      },
      {
         "bufferView" : 15,
         "byteOffset" : 0,
         "componentType" : 5126,
         "count" : 17,
         "max" : [ 0.40000000596046448, 0.5, 0.40000000596046448 ],
         "min" : [ -0.40000000596046448, -0.5, -0.40000000596046448 ],
         "type" : "VEC3"
      },
      {
         "bufferView" : 16,
         "byteOffset" : 0,
         "componentType" : 5125,
         "count" : 90,
         "type" : "SCALAR"
      },
      {
         "bufferView" : 17,
         "byteOffset" : 0,
         "componentType" : 5126,
         "count" : 17,
         "max" : [ 0.40000000596046448, 0.5, 0.40000000596046448 ],
         "min" : [ -0.40000000596046448, -0.5, -0.40000000596046448 ],
         "type" : "VEC3"
      },
      {
         "bufferView" : 18,
         "byteOffset" : 0,
         "componentType" : 5125,
         "count" : 90,
         "type" : "SCALAR"
      },
      {
         "bufferView" : 19,
         "byteOffset" : 0,
         "componentType" : 5126,
         "count" : 14,
         "max" : [ 1.1411700248718262, 1.0264400243759155, 0.0 ],
         "min" : [ 0.1519400030374527, -0.071429997682571411, 0.0 ],
         "type" : "VEC3"
      },
      {
         "bufferView" : 20,
         "byteOffset" : 0,
         "componentType" : 5125,
         "count" : 36,
         "type" : "SCALAR"
      },
      {
         "bufferView" : 21,
         "byteOffset" : 0,
         "componentType" : 5126,
         "count" : 12,
         "max" : [ 1.1452100276947021, 1.0257099866867065, 0.0 ],
         "min" : [ 0.15284000337123871, -0.071429997682571411, 0.0 ],
         "type" : "VEC3"
      },
      {
         "bufferView" : 22,
         "byteOffset" : 0,
         "componentType" : 5125,
         "count" : 30,
         "type" : "SCALAR"
      },
      {
         "bufferView" : 23,
         "byteOffset" : 0,
         "componentType" : 5126,
         "count" : 11,
         "max" : [ 1.0399999618530273, 1.0261499881744385, 0.0 ],
         "min" : [ 0.17395000159740448, -0.071860000491142273, 0.0 ],
         "type" : "VEC3"
      },
      {
         "bufferView" : 24,
         "byteOffset" : 0,
         "componentType" : 5125,
         "count" : 27,
         "type" : "SCALAR"
      }
   ],
   "asset" : 
   {
      "generator" : "VTK",
      "version" : "2.0"
   },
   "bufferViews" : 
   [
      {
         "buffer" : 0,
         "byteLength" : 277032,
         "byteOffset" : 0
      },
      {
         "buffer" : 1,
         "byteLength" : 184688,
         "byteOffset" : 0
      },
      {
         "buffer" : 2,
         "byteLength" : 535392,
         "byteOffset" : 0
      },
      {
         "buffer" : 3,
         "byteLength" : 2134,
         "byteOffset" : 0
      },
      {
         "buffer" : 4,
         "byteLength" : 24,
         "byteOffset" : 0
      },
      {
         "buffer" : 5,
         "byteLength" : 16,
         "byteOffset" : 0
      },
      {
         "buffer" : 6,
         "byteLength" : 8,
         "byteOffset" : 0
      },
      {
         "buffer" : 7,
         "byteLength" : 24,
         "byteOffset" : 0
      },
      {
         "buffer" : 8,
         "byteLength" : 16,
         "byteOffset" : 0
      },
      {
         "buffer" : 9,
         "byteLength" : 8,
         "byteOffset" : 0
      },
      {
         "buffer" : 10,
         "byteLength" : 24,
         "byteOffset" : 0
      },
      {
         "buffer" : 11,
         "byteLength" : 16,
         "byteOffset" : 0
      },
      {
         "buffer" : 12,
         "byteLength" : 8,
         "byteOffset" : 0
      },
      {
         "buffer" : 13,
         "byteLength" : 204,
         "byteOffset" : 0
      },
      {
         "buffer" : 14,
         "byteLength" : 360,
         "byteOffset" : 0
      },
      {
         "buffer" : 15,
         "byteLength" : 204,
         "byteOffset" : 0
      },
      {
         "buffer" : 16,
         "byteLength" : 360,
         "byteOffset" : 0
      },
      {
         "buffer" : 17,
         "byteLength" : 204,
         "byteOffset" : 0
      },
      {
         "buffer" : 18,
         "byteLength" : 360,
         "byteOffset" : 0
      },
      {
         "buffer" : 19,
         "byteLength" : 168,
         "byteOffset" : 0
      },
      {
         "buffer" : 20,
         "byteLength" : 144,
         "byteOffset" : 0
      },
      {
         "buffer" : 21,
         "byteLength" : 144,
         "byteOffset" : 0
      },
      {
         "buffer" : 22,
         "byteLength" : 120,
         "byteOffset" : 0
      },
      {
         "buffer" : 23,
         "byteLength" : 132,
         "byteOffset" : 0
      },
      {
         "buffer" : 24,
         "byteLength" : 108,
         "byteOffset" : 0
      }
   ],
   "buffers" : 
   [
      {
         "byteLength" : 277032,
         "uri" : "buffer153561078.bin"
      },
      {
         "byteLength" : 184688,
         "uri" : "buffer491790339.bin"
      },
      {
         "byteLength" : 535392,
         "uri" : "buffer491790340.bin"
      },
      {
         "byteLength" : 2134,
         "uri" : "buffer491790796.bin"
      },
      {
         "byteLength" : 24,
         "uri" : "buffer1450914.bin"
      },
      {
         "byteLength" : 16,
         "uri" : "buffer1450918.bin"
      },
      {
         "byteLength" : 8,
         "uri" : "buffer491791110.bin"
      },
      {
         "byteLength" : 24,
         "uri" : "buffer1450914.bin"
      },
      {
         "byteLength" : 16,
         "uri" : "buffer1450918.bin"
      },
      {
         "byteLength" : 8,
         "uri" : "buffer491791360.bin"
      },
      {
         "byteLength" : 24,
         "uri" : "buffer1450914.bin"
      },
      {
         "byteLength" : 16,
         "uri" : "buffer1450918.bin"
      },
      {
         "byteLength" : 8,
         "uri" : "buffer491791610.bin"
      },
      {
         "byteLength" : 204,
         "uri" : "buffer1450789.bin"
      },
      {
         "byteLength" : 360,
         "uri" : "buffer491791995.bin"
      },
      {
         "byteLength" : 204,
         "uri" : "buffer1450789.bin"
      },
      {
         "byteLength" : 360,
         "uri" : "buffer491792380.bin"
      },
      {
         "byteLength" : 204,
         "uri" : "buffer1450789.bin"
      },
      {
         "byteLength" : 360,
         "uri" : "buffer491792765.bin"
      },
      {
         "byteLength" : 168,
         "uri" : "buffer1538908.bin"
      },
      {
         "byteLength" : 144,
         "uri" : "buffer491793126.bin"
      },
      {
         "byteLength" : 144,
         "uri" : "buffer1539110.bin"
      },
      {
         "byteLength" : 120,
         "uri" : "buffer491793487.bin"
      },
      {
         "byteLength" : 132,
         "uri" : "buffer1539312.bin"
      },
      {
         "byteLength" : 108,
         "uri" : "buffer491793848.bin"
      }
   ],
   "cameras" : 
   [
      {
         "perspective" : 
         {
            "aspectRatio" : 2.2698275862068966,
            "yfov" : 30.0,
            "zfar" : 52.524583039673999,
            "znear" : 16.351595297013979
         },
         "type" : "perspective"
      },
      {
         "perspective" : 
         {
            "aspectRatio" : 1.0,
            "yfov" : 30.0,
            "zfar" : 11.092702655222302,
            "znear" : 3.2090899100130663
         },
         "type" : "perspective"
      }
   ],
   "images" : 
   [
      {
         "bufferView" : 3,
         "mimeType" : "image/png"
      }
   ],
   "materials" : 
   [
      {
         "pbrMetallicRoughness" : 
         {
            "baseColorFactor" : [ 1.0, 1.0, 1.0, 1.0 ],
            "baseColorTexture" : 
            {
               "index" : 0,
               "texCoord" : 0
            },
            "metallicFactor" : 0.0,
            "roughnessFactor" : 1.0
         }
      },
      {
         "pbrMetallicRoughness" : 
         {
            "baseColorFactor" : [ 1.0, 0.0, 0.0, 1.0 ],
            "metallicFactor" : 0.0,
            "roughnessFactor" : 1.0
         }
      },
      {
         "pbrMetallicRoughness" : 
         {
            "baseColorFactor" : [ 1.0, 1.0, 0.0, 1.0 ],
            "metallicFactor" : 0.0,
            "roughnessFactor" : 1.0
         }
      },
      {
         "pbrMetallicRoughness" : 
         {
            "baseColorFactor" : [ 0.0, 1.0, 0.0, 1.0 ],
            "metallicFactor" : 0.0,
            "roughnessFactor" : 1.0
         }
      },
      {
         "pbrMetallicRoughness" : 
         {
            "baseColorFactor" : [ 1.0, 0.0, 0.0, 1.0 ],
            "metallicFactor" : 0.0,
            "roughnessFactor" : 1.0
         }
      },
      {
         "pbrMetallicRoughness" : 
         {
            "baseColorFactor" : [ 1.0, 1.0, 0.0, 1.0 ],
            "metallicFactor" : 0.0,
            "roughnessFactor" : 1.0
         }
      },
      {
         "pbrMetallicRoughness" : 
         {
            "baseColorFactor" : [ 0.0, 1.0, 0.0, 1.0 ],
            "metallicFactor" : 0.0,
            "roughnessFactor" : 1.0
         }
      },
      {
         "pbrMetallicRoughness" : 
         {
            "baseColorFactor" : [ 0.0, 0.0, 0.0, 1.0 ],
            "metallicFactor" : 0.0,
            "roughnessFactor" : 1.0
         }
      },
      {
         "pbrMetallicRoughness" : 
         {
            "baseColorFactor" : [ 0.0, 0.0, 0.0, 1.0 ],
            "metallicFactor" : 0.0,
            "roughnessFactor" : 1.0
         }
      },
      {
         "pbrMetallicRoughness" : 
         {
            "baseColorFactor" : [ 0.0, 0.0, 0.0, 1.0 ],
            "metallicFactor" : 0.0,
            "roughnessFactor" : 1.0
         }
      }
   ],
   "meshes" : 
   [
      {
         "primitives" : 
         [
            {
               "attributes" : 
               {
                  "POSITION" : 0,
                  "TEXCOORD_0" : 1
               },
               "indices" : 2,
               "material" : 0,
               "mode" : 4
            }
         ]
      },
      {
         "primitives" : 
         [
            {
               "attributes" : 
               {
                  "POSITION" : 3,
                  "TEXCOORD_0" : 4
               },
               "indices" : 5,
               "material" : 1,
               "mode" : 1
            }
         ]
      },
      {
         "primitives" : 
         [
            {
               "attributes" : 
               {
                  "POSITION" : 6,
                  "TEXCOORD_0" : 7
               },
               "indices" : 8,
               "material" : 2,
               "mode" : 1
            }
         ]
      },
      {
         "primitives" : 
         [
            {
               "attributes" : 
               {
                  "POSITION" : 9,
                  "TEXCOORD_0" : 10
               },
               "indices" : 11,
               "material" : 3,
               "mode" : 1
            }
         ]
      },
      {
         "primitives" : 
         [
            {
               "attributes" : 
               {
                  "POSITION" : 12
               },
               "indices" : 13,
               "material" : 4,
               "mode" : 4
            }
         ]
      },
      {
         "primitives" : 
         [
            {
               "attributes" : 
               {
                  "POSITION" : 14
               },
               "indices" : 15,
               "material" : 5,
               "mode" : 4
            }
         ]
      },
      {
         "primitives" : 
         [
            {
               "attributes" : 
               {
                  "POSITION" : 16
               },
               "indices" : 17,
               "material" : 6,
               "mode" : 4
            }
         ]
      },
      {
         "primitives" : 
         [
            {
               "attributes" : 
               {
                  "POSITION" : 18
               },
               "indices" : 19,
               "material" : 7,
               "mode" : 4
            }
         ]
      },
      {
         "primitives" : 
         [
            {
               "attributes" : 
               {
                  "POSITION" : 20
               },
               "indices" : 21,
               "material" : 8,
               "mode" : 4
            }
         ]
      },
      {
         "primitives" : 
         [
            {
               "attributes" : 
               {
                  "POSITION" : 22
               },
               "indices" : 23,
               "material" : 9,
               "mode" : 4
            }
         ]
      }
   ],
   "nodes" : 
   [
      {
         "matrix" : 
         [
            1.0,
            0.0,
            0.0,
            0.0,
            0.0,
            1.0,
            0.0,
            0.0,
            0.0,
            0.0,
            1.0,
            0.0,
            0.0,
            0.0,
            0.0,
            1.0
         ],
         "mesh" : 0
      },
      {
         "camera" : 0,
         "children" : [ 0 ],
         "matrix" : 
         [
            -0.71276070748939424,
            -0.35360997638867547,
            0.60574925378213951,
            0.0,
            0.70011938243446159,
            -0.30636283667640529,
            0.64496097761273485,
            0.0,
            -0.042485576361944222,
            0.88379963617439172,
            0.46593259050983626,
            0.0,
            -1.4375130248371586,
            1.499732613496537,
            -40.691724031185231,
            1.0
         ],
         "name" : "Camera Node"
      },
      {
         "matrix" : 
         [
            0.0,
            -0.80000001192092918,
            0.0,
            0.0,
            0.80000001192092918,
            0.0,
            0.0,
            0.0,
            0.0,
            0.0,
            0.80000001192092918,
            0.0,
            0.0,
            0.0,
            0.0,
            1.0
         ],
         "mesh" : 1
      },
      {
         "matrix" : 
         [
            0.80000001192092896,
            0.0,
            0.0,
            0.0,
            0.0,
            0.80000001192092896,
            0.0,
            0.0,
            0.0,
            0.0,
            0.80000001192092896,
            0.0,
            0.0,
            0.0,
            0.0,
            1.0
         ],
         "mesh" : 2
      },
      {
         "matrix" : 
         [
            0.80000001192092918,
            0.0,
            0.0,
            0.0,
            0.0,
            0.0,
            0.80000001192092918,
            0.0,
            0.0,
            -0.80000001192092918,
            0.0,
            0.0,
            0.0,
            0.0,
            0.0,
            1.0
         ],
         "mesh" : 3
      },
      {
         "matrix" : 
         [
            0.0,
            -0.20000000298023229,
            0.0,
            0.0,
            0.20000000298023229,
            0.0,
            0.0,
            0.0,
            0.0,
            0.0,
            0.20000000298023229,
            0.0,
            0.8999999985098841,
            0.0,
            0.0,
            1.0
         ],
         "mesh" : 4
      },
      {
         "matrix" : 
         [
            0.20000000298023224,
            0.0,
            0.0,
            0.0,
            0.0,
            0.20000000298023224,
            0.0,
            0.0,
            0.0,
            0.0,
            0.20000000298023224,
            0.0,
            0.0,
            0.89999999850988388,
            0.0,
            1.0
         ],
         "mesh" : 5
      },
      {
         "matrix" : 
         [
            0.20000000298023229,
            0.0,
            0.0,
            0.0,
            0.0,
            0.0,
            0.20000000298023229,
            0.0,
            0.0,
            -0.20000000298023229,
            0.0,
            0.0,
            0.0,
            0.0,
            0.8999999985098841,
            1.0
         ],
         "mesh" : 6
      },
      {
         "matrix" : 
         [
            -0.15272054171942429,
            0.12791806365144537,
            -0.017703285590060944,
            0.0,
            -0.076163958824824601,
            -0.0670813464558567,
            0.17233440029748168,
            0.0,
            0.10428561120858866,
            0.13833677436396655,
            0.099937227025353237,
            0.0,
            0.80000001192092918,
            0.0,
            0.0,
            1.0
         ],
         "mesh" : 7
      },
      {
         "matrix" : 
         [
            -0.13129889678932422,
            0.15086508014529182,
            0.00057313763963346201,
            0.0,
            -0.075470217880906396,
            -0.066339186436616335,
            0.17292587934727779,
            0.0,
            0.13063248871168232,
            0.11330861012198253,
            0.10048041081379822,
            0.0,
            0.0,
            0.80000001192092896,
            0.0,
            1.0
         ],
         "mesh" : 8
      },
      {
         "matrix" : 
         [
            -0.14323567117670441,
            0.13930027289501118,
            -0.0088869379443842541,
            0.0,
            -0.056812745625268925,
            -0.046549918214390633,
            0.18602531612886708,
            0.0,
            0.12749845343834726,
            0.13575175975913487,
            0.072908197654451959,
            0.0,
            0.0,
            0.0,
            0.80000001192092918,
            1.0
         ],
         "mesh" : 9
      },
      {
         "camera" : 1,
         "children" : [ 2, 3, 4, 5, 6, 7, 8, 9, 10 ],
         "matrix" : 
         [
            -0.71276070748939413,
            -0.35360997638867536,
            0.6057492537821394,
            0.0,
            0.70011938243446148,
            -0.30636283667640518,
            0.64496097761273474,
            0.0,
            -0.042485576361944249,
            0.88379963617439139,
            0.46593259050983621,
            0.0,
            -1.1102230246251565e-16,
            -8.8817841970012523e-16,
            -6.6921304299024653,
            1.0
         ],
         "name" : "Camera Node"
      }
   ],
   "samplers" : 
   [
      {
         "magFilter" : 9728,
         "minFilter" : 9728,
         "wrapS" : 33071,
         "wrapT" : 33071
      }
   ],
   "scene" : 0,
   "scenes" : 
   [
      {
         "name" : "Layer 0",
         "nodes" : [ 1, 11 ]
      }
   ],
   "textures" : 
   [
      {
         "sampler" : 0,
         "source" : 0
      }
   ]
}