{
   "accessors" : 
   [
      {
         "bufferView" : 0,
         "byteOffset" : 0,
         "componentType" : 5126,
         "count" : 23086,
         "max" : [ 9.1400003433227539, 13.715999603271484, 3.9600000381469727 ],
         "min" : [ 0.0, 0.0, 1.0576560497283936 ],
         "type" : "VEC3"
      },
      {
         "bufferView" : 1,
         "byteOffset" : 0,
         "componentType" : 5126,
         "count" : 23086,
         "normalized" : false,
         "type" : "VEC2"
      },
      {
         "bufferView" : 2,
         "byteOffset" : 0,
         "componentType" : 5125,
         "count" : 133848,
         "type" : "SCALAR"
      },
      {
         "bufferView" : 4,
         "byteOffset" : 0,
         "componentType" : 5126,
         "count" : 2,
         "max" : [ 0.0, 1.0, 0.0 ],
         "min" : [ 0.0, 0.0, 0.0 ],
         "type" : "VEC3"
      },
      {
         "bufferView" : 5,
         "byteOffset" : 0,
         "componentType" : 5126,
         "count" : 2,
         "normalized" : false,
         "type" : "VEC2"
      },
      {
         "bufferView" : 6,
         "byteOffset" : 0,
         "componentType" : 5125,
         "count" : 2,
         "type" : "SCALAR"
      },
      {
         "bufferView" : 7,
         "byteOffset" : 0,
         "componentType" : 5126,
         "count" : 2,
         "max" : [ 0.0, 1.0, 0.0 ],
         "min" : [ 0.0, 0.0, 0.0 ],
         "type" : "VEC3"
      },
      {
         "bufferView" : 8,
         "byteOffset" : 0,
         "componentType" : 5126,
         "count" : 2,
         "normalized" : false,
         "type" : "VEC2"
      },
      {
         "bufferView" : 9,
         "byteOffset" : 0,
         "componentType" : 5125,
         "count" : 2,
         "type" : "SCALAR"
      },
      {
         "bufferView" : 10,
         "byteOffset" : 0,
         "componentType" : 5126,
         "count" : 2,
         "max" : [ 0.0, 1.0, 0.0 ],
         "min" : [ 0.0, 0.0, 0.0 ],
         "type" : "VEC3"
      },
      {
         "bufferView" : 11,
         "byteOffset" : 0,
         "componentType" : 5126,
         "count" : 2,
         "normalized" : false,
         "type" : "VEC2"
      },
      {
         "bufferView" : 12,
         "byteOffset" : 0,
         "componentType" : 5125,
         "count" : 2,
         "type" : "SCALAR"
      },
      {
         "bufferView" : 13,
         "byteOffset" : 0,
         "componentType" : 5126,
         "count" : 17,
         "max" : [ 0.40000000596046448, 0.5, 0.40000000596046448 ],
         "min" : [ -0.40000000596046448, -0.5, -0.40000000596046448 ],
         "type" : "VEC3"
      },
      {
         "bufferView" : 14,
         "byteOffset" : 0,
         "componentType" : 5125,
         "count" : 90,
         "type" : "SCALAR"
      },
      {
         "bufferView" : 15,
         "byteOffset" : 0,
         "componentType" : 5126,
         "count" : 17,
         "max" : [ 0.40000000596046448, 0.5, 0.40000000596046448 ],
         "min" : [ -0.40000000596046448, -0.5, -0.40000000596046448 ],
         "type" : "VEC3"
      },
      {
         "bufferView" : 16,
         "byteOffset" : 0,
         "componentType" : 5125,
         "count" : 90,
         "type" : "SCALAR"
      },
      {
         "bufferView" : 17,
         "byteOffset" : 0,
         "componentType" : 5126,
         "count" : 17,
         "max" : [ 0.40000000596046448, 0.5, 0.40000000596046448 ],
         "min" : [ -0.40000000596046448, -0.5, -0.40000000596046448 ],
         "type" : "VEC3"
      },
      {
         "bufferView" : 18,
         "byteOffset" : 0,
         "componentType" : 5125,
         "count" : 90,
         "type" : "SCALAR"
      },
      {
         "bufferView" : 19,
         "byteOffset" : 0,
         "componentType" : 5126,
         "count" : 14,
         "max" : [ 1.1411700248718262, 1.0264400243759155, 0.0 ],
         "min" : [ 0.1519400030374527, -0.071429997682571411, 0.0 ],
         "type" : "VEC3"
      },
      {
         "bufferView" : 20,
         "byteOffset" : 0,
         "componentType" : 5125,
         "count" : 36,
         "type" : "SCALAR"
      },
      {
         "bufferView" : 21,
         "byteOffset" : 0,
         "componentType" : 5126,
         "count" : 12,
         "max" : [ 1.1452100276947021, 1.0257099866867065, 0.0 ],
         "min" : [ 0.15284000337123871, -0.071429997682571411, 0.0 ],
         "type" : "VEC3"
      },
      {
         "bufferView" : 22,
         "byteOffset" : 0,
         "componentType" : 5125,
         "count" : 30,
         "type" : "SCALAR"
      },
      {
         "bufferView" : 23,
         "byteOffset" : 0,
         "componentType" : 5126,
         "count" : 11,
         "max" : [ 1.0399999618530273, 1.0261499881744385, 0.0 ],
         "min" : [ 0.17395000159740448, -0.071860000491142273, 0.0 ],
         "type" : "VEC3"
      },
      {
         "bufferView" : 24,
         "byteOffset" : 0,
         "componentType" : 5125,
         "count" : 27,
         "type" : "SCALAR"
      }
   ],
   "asset" : 
   {
      "generator" : "VTK",
      "version" : "2.0"
   },
   "bufferViews" : 
   [
      {
         "buffer" : 0,
         "byteLength" : 277032,
         "byteOffset" : 0
      },
      {
         "buffer" : 1,
         "byteLength" : 184688,
         "byteOffset" : 0
      },
      {
         "buffer" : 2,
         "byteLength" : 535392,
         "byteOffset" : 0
      },
      {
         "buffer" : 3,
         "byteLength" : 2134,
         "byteOffset" : 0
      },
      {
         "buffer" : 4,
         "byteLength" : 24,
         "byteOffset" : 0
      },
      {
         "buffer" : 5,
         "byteLength" : 16,
         "byteOffset" : 0
      },
      {
         "buffer" : 6,
         "byteLength" : 8,
         "byteOffset" : 0
      },
      {
         "buffer" : 7,
         "byteLength" : 24,
         "byteOffset" : 0
      },
      {
         "buffer" : 8,
         "byteLength" : 16,
         "byteOffset" : 0
      },
      {
         "buffer" : 9,
         "byteLength" : 8,
         "byteOffset" : 0
      },
      {
         "buffer" : 10,
         "byteLength" : 24,
         "byteOffset" : 0
      },
      {
         "buffer" : 11,
         "byteLength" : 16,
         "byteOffset" : 0
      },
      {
         "buffer" : 12,
         "byteLength" : 8,
         "byteOffset" : 0
      },
      {
         "buffer" : 13,
         "byteLength" : 204,
         "byteOffset" : 0
      },
      {
         "buffer" : 14,
         "byteLength" : 360,
         "byteOffset" : 0
      },
      {
         "buffer" : 15,
         "byteLength" : 204,
         "byteOffset" : 0
      },
      {
         "buffer" : 16,
         "byteLength" : 360,
         "byteOffset" : 0
      },
      {
         "buffer" : 17,
         "byteLength" : 204,
         "byteOffset" : 0
      },
      {
         "buffer" : 18,
         "byteLength" : 360,
         "byteOffset" : 0
      },
      {
         "buffer" : 19,
         "byteLength" : 168,
         "byteOffset" : 0
      },
      {
         "buffer" : 20,
         "byteLength" : 144,
         "byteOffset" : 0
      },
      {
         "buffer" : 21,
         "byteLength" : 144,
         "byteOffset" : 0
      },
      {
         "buffer" : 22,
         "byteLength" : 120,
         "byteOffset" : 0
      },
      {
         "buffer" : 23,
         "byteLength" : 132,
         "byteOffset" : 0
      },
      {
         "buffer" : 24,
         "byteLength" : 108,
         "byteOffset" : 0
      }
   ],
   "buffers" : 
   [
      {
         "byteLength" : 277032,
         "uri" : "buffer184998613.bin"
      },
      {
         "byteLength" : 184688,
         "uri" : "buffer476069569.bin"
      },
      {
         "byteLength" : 535392,
         "uri" : "buffer476069570.bin"
      },
      {
         "byteLength" : 2134,
         "uri" : "buffer476070030.bin"
      },
      {
         "byteLength" : 24,
         "uri" : "buffer1450914.bin"
      },
      {
         "byteLength" : 16,
         "uri" : "buffer1450918.bin"
      },
      {
         "byteLength" : 8,
         "uri" : "buffer476070346.bin"
      },
      {
         "byteLength" : 24,
         "uri" : "buffer1450914.bin"
      },
      {
         "byteLength" : 16,
         "uri" : "buffer1450918.bin"
      },
      {
         "byteLength" : 8,
         "uri" : "buffer476070596.bin"
      },
      {
         "byteLength" : 24,
         "uri" : "buffer1450914.bin"
      },
      {
         "byteLength" : 16,
         "uri" : "buffer1450918.bin"
      },
      {
         "byteLength" : 8,
         "uri" : "buffer476070846.bin"
      },
      {
         "byteLength" : 204,
         "uri" : "buffer1450789.bin"
      },
      {
         "byteLength" : 360,
         "uri" : "buffer476071231.bin"
      },
      {
         "byteLength" : 204,
         "uri" : "buffer1450789.bin"
      },
      {
         "byteLength" : 360,
         "uri" : "buffer476071616.bin"
      },
      {
         "byteLength" : 204,
         "uri" : "buffer1450789.bin"
      },
      {
         "byteLength" : 360,
         "uri" : "buffer476072001.bin"
      },
      {
         "byteLength" : 168,
         "uri" : "buffer1538908.bin"
      },
      {
         "byteLength" : 144,
         "uri" : "buffer476072362.bin"
      },
      {
         "byteLength" : 144,
         "uri" : "buffer1539110.bin"
      },
      {
         "byteLength" : 120,
         "uri" : "buffer476072723.bin"
      },
      {
         "byteLength" : 132,
         "uri" : "buffer1539312.bin"
      },
      {
         "byteLength" : 108,
         "uri" : "buffer476073084.bin"
      }
   ],
   "cameras" : 
   [
      {
         "perspective" : 
         {
            "aspectRatio" : 2.2698275862068966,
            "yfov" : 30.0,
            "zfar" : 48.831900221397333,
            "znear" : 19.285103803349635
         },
         "type" : "perspective"
      },
      {
         "perspective" : 
         {
            "aspectRatio" : 1.0,
            "yfov" : 30.0,
            "zfar" : 10.383065352713393,
            "znear" : 3.7728337151997819
         },
         "type" : "perspective"
      }
   ],
   "images" : 
   [
      {
         "bufferView" : 3,
         "mimeType" : "image/png"
      }
   ],
   "materials" : 
   [
      {
         "pbrMetallicRoughness" : 
         {
            "baseColorFactor" : [ 1.0, 1.0, 1.0, 1.0 ],
            "baseColorTexture" : 
            {
               "index" : 0,
               "texCoord" : 0
            },
            "metallicFactor" : 0.0,
            "roughnessFactor" : 1.0
         }
      },
      {
         "pbrMetallicRoughness" : 
         {
            "baseColorFactor" : [ 1.0, 0.0, 0.0, 1.0 ],
            "metallicFactor" : 0.0,
            "roughnessFactor" : 1.0
         }
      },
      {
         "pbrMetallicRoughness" : 
         {
            "baseColorFactor" : [ 1.0, 1.0, 0.0, 1.0 ],
            "metallicFactor" : 0.0,
            "roughnessFactor" : 1.0
         }
      },
      {
         "pbrMetallicRoughness" : 
         {
            "baseColorFactor" : [ 0.0, 1.0, 0.0, 1.0 ],
            "metallicFactor" : 0.0,
            "roughnessFactor" : 1.0
         }
      },
      {
         "pbrMetallicRoughness" : 
         {
            "baseColorFactor" : [ 1.0, 0.0, 0.0, 1.0 ],
            "metallicFactor" : 0.0,
            "roughnessFactor" : 1.0
         }
      },
      {
         "pbrMetallicRoughness" : 
         {
            "baseColorFactor" : [ 1.0, 1.0, 0.0, 1.0 ],
            "metallicFactor" : 0.0,
            "roughnessFactor" : 1.0
         }
      },
      {
         "pbrMetallicRoughness" : 
         {
            "baseColorFactor" : [ 0.0, 1.0, 0.0, 1.0 ],
            "metallicFactor" : 0.0,
            "roughnessFactor" : 1.0
         }
      },
      {
         "pbrMetallicRoughness" : 
         {
            "baseColorFactor" : [ 0.0, 0.0, 0.0, 1.0 ],
            "metallicFactor" : 0.0,
            "roughnessFactor" : 1.0
         }
      },
      {
         "pbrMetallicRoughness" : 
         {
            "baseColorFactor" : [ 0.0, 0.0, 0.0, 1.0 ],
            "metallicFactor" : 0.0,
            "roughnessFactor" : 1.0
         }
      },
      {
         "pbrMetallicRoughness" : 
         {
            "baseColorFactor" : [ 0.0, 0.0, 0.0, 1.0 ],
            "metallicFactor" : 0.0,
            "roughnessFactor" : 1.0
         }
      }
   ],
   "meshes" : 
   [
      {
         "primitives" : 
         [
            {
               "attributes" : 
               {
                  "POSITION" : 0,
                  "TEXCOORD_0" : 1
               },
               "indices" : 2,
               "material" : 0,
               "mode" : 4
            }
         ]
      },
      {
         "primitives" : 
         [
            {
               "attributes" : 
               {
                  "POSITION" : 3,
                  "TEXCOORD_0" : 4
               },
               "indices" : 5,
               "material" : 1,
               "mode" : 1
            }
         ]
      },
      {
         "primitives" : 
         [
            {
               "attributes" : 
               {
                  "POSITION" : 6,
                  "TEXCOORD_0" : 7
               },
               "indices" : 8,
               "material" : 2,
               "mode" : 1
            }
         ]
      },
      {
         "primitives" : 
         [
            {
               "attributes" : 
               {
                  "POSITION" : 9,
                  "TEXCOORD_0" : 10
               },
               "indices" : 11,
               "material" : 3,
               "mode" : 1
            }
         ]
      },
      {
         "primitives" : 
         [
            {
               "attributes" : 
               {
                  "POSITION" : 12
               },
               "indices" : 13,
               "material" : 4,
               "mode" : 4
            }
         ]
      },
      {
         "primitives" : 
         [
            {
               "attributes" : 
               {
                  "POSITION" : 14
               },
               "indices" : 15,
               "material" : 5,
               "mode" : 4
            }
         ]
      },
      {
         "primitives" : 
         [
            {
               "attributes" : 
               {
                  "POSITION" : 16
               },
               "indices" : 17,
               "material" : 6,
               "mode" : 4
            }
         ]
      },
      {
         "primitives" : 
         [
            {
               "attributes" : 
               {
                  "POSITION" : 18
               },
               "indices" : 19,
               "material" : 7,
               "mode" : 4
            }
         ]
      },
      {
         "primitives" : 
         [
            {
               "attributes" : 
               {
                  "POSITION" : 20
               },
               "indices" : 21,
               "material" : 8,
               "mode" : 4
            }
         ]
      },
      {
         "primitives" : 
         [
            {
               "attributes" : 
               {
                  "POSITION" : 22
               },
               "indices" : 23,
               "material" : 9,
               "mode" : 4
            }
         ]
      }
   ],
   "nodes" : 
   [
      {
         "matrix" : 
         [
            1.0,
            0.0,
            0.0,
            0.0,
            0.0,
            1.0,
            0.0,
            0.0,
            0.0,
            0.0,
            1.0,
            0.0,
            0.0,
            0.0,
            0.0,
            1.0
         ],
         "mesh" : 0
      },
      {
         "camera" : 0,
         "children" : [ 0 ],
         "matrix" : 
         [
            -0.28260935384835906,
            -0.20966910038525091,
            0.93603996787586607,
            0.0,
            0.95629538122323698,
            -0.13792129426971708,
            0.2578310695747702,
            0.0,
            0.075040635448514761,
            0.96799616989459492,
            0.23948344013914077,
            0.0,
            -5.4550127897821623,
            -0.5244839039600695,
            -38.978093839784286,
            1.0
         ],
         "name" : "Camera Node"
      },
      {
         "matrix" : 
         [
            0.0,
            -0.80000001192092918,
            0.0,
            0.0,
            0.80000001192092918,
            0.0,
            0.0,
            0.0,
            0.0,
            0.0,
            0.80000001192092918,
            0.0,
            0.0,
            0.0,
            0.0,
            1.0
         ],
         "mesh" : 1
      },
      {
         "matrix" : 
         [
            0.80000001192092896,
            0.0,
            0.0,
            0.0,
            0.0,
            0.80000001192092896,
            0.0,
            0.0,
            0.0,
            0.0,
            0.80000001192092896,
            0.0,
            0.0,
            0.0,
            0.0,
            1.0
         ],
         "mesh" : 2
      },
      {
         "matrix" : 
         [
            0.80000001192092918,
            0.0,
            0.0,
            0.0,
            0.0,
            0.0,
            0.80000001192092918,
            0.0,
            0.0,
            -0.80000001192092918,
            0.0,
            0.0,
            0.0,
            0.0,
            0.0,
            1.0
         ],
         "mesh" : 3
      },
      {
         "matrix" : 
         [
            0.0,
            -0.20000000298023229,
            0.0,
            0.0,
            0.20000000298023229,
            0.0,
            0.0,
            0.0,
            0.0,
            0.0,
            0.20000000298023229,
            0.0,
            0.8999999985098841,
            0.0,
            0.0,
            1.0
         ],
         "mesh" : 4
      },
      {
         "matrix" : 
         [
            0.20000000298023224,
            0.0,
            0.0,
            0.0,
            0.0,
            0.20000000298023224,
            0.0,
            0.0,
            0.0,
            0.0,
            0.20000000298023224,
            0.0,
            0.0,
            0.89999999850988388,
            0.0,
            1.0
         ],
         "mesh" : 5
      },
      {
         "matrix" : 
         [
            0.20000000298023229,
            0.0,
            0.0,
            0.0,
            0.0,
            0.0,
            0.20000000298023229,
            0.0,
            0.0,
            -0.20000000298023229,
            0.0,
            0.0,
            0.0,
            0.0,
            0.8999999985098841,
            1.0
         ],
         "mesh" : 6
      },
      {
         "matrix" : 
         [
            -0.063546824205965483,
            0.18919188307719229,
            0.012970493557880703,
            0.0,
            -0.047198522050483874,
            -0.02902803313964563,
            0.19217094993881498,
            0.0,
            0.18366845630559159,
            0.057998326371047466,
            0.053871082118065468,
            0.0,
            0.80000001192092918,
            0.0,
            0.0,
            1.0
         ],
         "mesh" : 7
      },
      {
         "matrix" : 
         [
            -0.034292708081391579,
            0.19592655867650605,
            0.020899640420805925,
            0.0,
            -0.045112061105503719,
            -0.02845738210674198,
            0.19275653176620783,
            0.0,
            0.19180436206549278,
            0.028336587672219915,
            0.049072657191524018,
            0.0,
            0.0,
            0.80000001192092896,
            0.0,
            1.0
         ],
         "mesh" : 8
      },
      {
         "matrix" : 
         [
            -0.054769407340174901,
            0.19175048933010283,
            0.015233615899221854,
            0.0,
            -0.019494262338300247,
            -0.021290736425288885,
            0.19790573379881471,
            0.0,
            0.19136427813880111,
            0.052711057437959889,
            0.024520576426352005,
            0.0,
            0.0,
            0.0,
            0.80000001192092918,
            1.0
         ],
         "mesh" : 9
      },
      {
         "camera" : 1,
         "children" : [ 2, 3, 4, 5, 6, 7, 8, 9, 10 ],
         "matrix" : 
         [
            -0.28260935384835906,
            -0.20966910038525091,
            0.93603996787586607,
            0.0,
            0.95629538122323698,
            -0.13792129426971708,
            0.2578310695747702,
            0.0,
            0.075040635448514761,
            0.96799616989459492,
            0.23948344013914077,
            0.0,
            -1.2490009027033011e-16,
            0.0,
            -6.6921304299024635,
            1.0
         ],
         "name" : "Camera Node"
      }
   ],
   "samplers" : 
   [
      {
         "magFilter" : 9728,
         "minFilter" : 9728,
         "wrapS" : 33071,
         "wrapT" : 33071
      }
   ],
   "scene" : 0,
   "scenes" : 
   [
      {
         "name" : "Layer 0",
         "nodes" : [ 1, 11 ]
      }
   ],
   "textures" : 
   [
      {
         "sampler" : 0,
         "source" : 0
      }
   ]
}